<mxfile host="app.diagrams.net" agent="Mozilla/5.0 (Windows NT 10.0; Win64; x64) AppleWebKit/537.36 (KHTML, like Gecko) Chrome/131.0.0.0 Safari/537.36 Edg/131.0.0.0" version="26.0.5">
  <diagram name="Page-1" id="52a04d89-c75d-2922-d76d-85b35f80e030">
    <mxGraphModel dx="1112" dy="1321" grid="1" gridSize="10" guides="1" tooltips="1" connect="1" arrows="1" fold="1" page="1" pageScale="1" pageWidth="1100" pageHeight="850" background="none" math="0" shadow="0">
      <root>
        <mxCell id="0" />
        <mxCell id="1" parent="0" />
        <mxCell id="dTGAiHR_OEUd41CjqDOk-23" style="edgeStyle=orthogonalEdgeStyle;rounded=0;orthogonalLoop=1;jettySize=auto;html=1;entryX=0.75;entryY=0;entryDx=0;entryDy=0;" edge="1" parent="1" source="21ea969265ad0168-30" target="dTGAiHR_OEUd41CjqDOk-20">
          <mxGeometry relative="1" as="geometry">
            <Array as="points">
              <mxPoint x="1130" y="-65" />
              <mxPoint x="1130" y="-430" />
              <mxPoint x="150" y="-430" />
            </Array>
          </mxGeometry>
        </mxCell>
        <mxCell id="dTGAiHR_OEUd41CjqDOk-28" value="Data update to Dashboard" style="edgeLabel;html=1;align=center;verticalAlign=middle;resizable=0;points=[];" vertex="1" connectable="0" parent="dTGAiHR_OEUd41CjqDOk-23">
          <mxGeometry x="-0.5134" y="1" relative="1" as="geometry">
            <mxPoint x="-545" y="-4" as="offset" />
          </mxGeometry>
        </mxCell>
        <mxCell id="21ea969265ad0168-30" value="Database" style="html=1;rounded=0;shadow=0;comic=0;labelBackgroundColor=none;strokeWidth=2;fontFamily=Verdana;fontSize=12;align=center;shape=mxgraph.ios7ui.horLines;" parent="1" vertex="1">
          <mxGeometry x="990" y="-90" width="110" height="50" as="geometry" />
        </mxCell>
        <mxCell id="dTGAiHR_OEUd41CjqDOk-65" style="edgeStyle=orthogonalEdgeStyle;rounded=0;orthogonalLoop=1;jettySize=auto;html=1;entryX=0;entryY=0.5;entryDx=0;entryDy=0;" edge="1" parent="1" source="17472293e6e8944d-29" target="dTGAiHR_OEUd41CjqDOk-66">
          <mxGeometry relative="1" as="geometry">
            <mxPoint x="1240" y="-370" as="targetPoint" />
          </mxGeometry>
        </mxCell>
        <mxCell id="17472293e6e8944d-29" value="RTTFR status" style="whiteSpace=wrap;html=1;rounded=0;shadow=0;comic=0;labelBackgroundColor=none;strokeWidth=1;fontFamily=Verdana;fontSize=12;align=center;" parent="1" vertex="1">
          <mxGeometry x="680" y="-380" width="120" height="20" as="geometry" />
        </mxCell>
        <mxCell id="1fdf3b25b50cf41e-27" style="edgeStyle=none;html=1;labelBackgroundColor=none;startFill=0;startSize=8;endFill=1;endSize=8;fontFamily=Verdana;fontSize=12;entryX=-0.014;entryY=0.021;entryDx=0;entryDy=0;entryPerimeter=0;" parent="1" source="17472293e6e8944d-30" target="1fdf3b25b50cf41e-2" edge="1">
          <mxGeometry relative="1" as="geometry" />
        </mxCell>
        <mxCell id="dTGAiHR_OEUd41CjqDOk-44" style="edgeStyle=orthogonalEdgeStyle;rounded=0;orthogonalLoop=1;jettySize=auto;html=1;entryX=0;entryY=0.5;entryDx=0;entryDy=0;exitX=1;exitY=0.75;exitDx=0;exitDy=0;" edge="1" parent="1" source="17472293e6e8944d-30" target="dTGAiHR_OEUd41CjqDOk-41">
          <mxGeometry relative="1" as="geometry">
            <mxPoint x="200" as="sourcePoint" />
            <Array as="points">
              <mxPoint x="180" y="16" />
            </Array>
          </mxGeometry>
        </mxCell>
        <mxCell id="17472293e6e8944d-30" value="All Device Enable &quot;by cloud Start&quot;" style="whiteSpace=wrap;html=1;rounded=0;shadow=0;comic=0;labelBackgroundColor=none;strokeWidth=1;fontFamily=Verdana;fontSize=12;align=center;" parent="1" vertex="1">
          <mxGeometry x="60" y="-20" width="120" height="50" as="geometry" />
        </mxCell>
        <mxCell id="1fdf3b25b50cf41e-28" style="edgeStyle=none;html=1;labelBackgroundColor=none;startFill=0;startSize=8;endFill=1;endSize=8;fontFamily=Verdana;fontSize=12;exitX=1;exitY=0.25;exitDx=0;exitDy=0;" parent="1" source="1fdf3b25b50cf41e-1" target="17472293e6e8944d-29" edge="1">
          <mxGeometry relative="1" as="geometry" />
        </mxCell>
        <mxCell id="1fdf3b25b50cf41e-1" value="1" style="swimlane;html=1;fontStyle=0;childLayout=stackLayout;horizontal=1;startSize=26;fillColor=#e0e0e0;horizontalStack=0;resizeParent=1;resizeLast=0;collapsible=1;marginBottom=0;swimlaneFillColor=#ffffff;align=center;rounded=1;shadow=0;comic=0;labelBackgroundColor=none;strokeWidth=1;fontFamily=Verdana;fontSize=12" parent="1" vertex="1">
          <mxGeometry x="295" y="-380" width="170" height="52" as="geometry" />
        </mxCell>
        <mxCell id="1fdf3b25b50cf41e-2" value="RTT sensor: RTTFR variable" style="text;html=1;strokeColor=none;fillColor=none;spacingLeft=4;spacingRight=4;whiteSpace=wrap;overflow=hidden;rotatable=0;points=[[0,0.5],[1,0.5]];portConstraint=eastwest;align=center;" parent="1fdf3b25b50cf41e-1" vertex="1">
          <mxGeometry y="26" width="170" height="26" as="geometry" />
        </mxCell>
        <mxCell id="dTGAiHR_OEUd41CjqDOk-2" value="2" style="swimlane;html=1;fontStyle=0;childLayout=stackLayout;horizontal=1;startSize=26;fillColor=#e0e0e0;horizontalStack=0;resizeParent=1;resizeLast=0;collapsible=1;marginBottom=0;swimlaneFillColor=#ffffff;align=center;rounded=1;shadow=0;comic=0;labelBackgroundColor=none;strokeWidth=1;fontFamily=Verdana;fontSize=12" vertex="1" parent="1">
          <mxGeometry x="295" y="-302" width="140" height="52" as="geometry" />
        </mxCell>
        <mxCell id="dTGAiHR_OEUd41CjqDOk-3" value="TW Flow sensor: TW" style="text;html=1;strokeColor=none;fillColor=none;spacingLeft=4;spacingRight=4;whiteSpace=wrap;overflow=hidden;rotatable=0;points=[[0,0.5],[1,0.5]];portConstraint=eastwest;align=center;" vertex="1" parent="dTGAiHR_OEUd41CjqDOk-2">
          <mxGeometry y="26" width="140" height="26" as="geometry" />
        </mxCell>
        <mxCell id="dTGAiHR_OEUd41CjqDOk-4" style="edgeStyle=none;html=1;labelBackgroundColor=none;startFill=0;startSize=8;endFill=1;endSize=8;fontFamily=Verdana;fontSize=12;entryX=0;entryY=0.5;entryDx=0;entryDy=0;exitX=0.792;exitY=0.003;exitDx=0;exitDy=0;exitPerimeter=0;" edge="1" parent="1" source="17472293e6e8944d-30" target="dTGAiHR_OEUd41CjqDOk-2">
          <mxGeometry relative="1" as="geometry">
            <mxPoint x="161" y="65" as="sourcePoint" />
            <mxPoint x="298" y="-43" as="targetPoint" />
          </mxGeometry>
        </mxCell>
        <mxCell id="dTGAiHR_OEUd41CjqDOk-34" style="edgeStyle=orthogonalEdgeStyle;rounded=0;orthogonalLoop=1;jettySize=auto;html=1;" edge="1" parent="1" source="dTGAiHR_OEUd41CjqDOk-5" target="dTGAiHR_OEUd41CjqDOk-32">
          <mxGeometry relative="1" as="geometry">
            <Array as="points">
              <mxPoint x="550" y="-220" />
              <mxPoint x="550" y="-220" />
            </Array>
          </mxGeometry>
        </mxCell>
        <mxCell id="dTGAiHR_OEUd41CjqDOk-5" value="3" style="swimlane;html=1;fontStyle=0;childLayout=stackLayout;horizontal=1;startSize=26;fillColor=#e0e0e0;horizontalStack=0;resizeParent=1;resizeLast=0;collapsible=1;marginBottom=0;swimlaneFillColor=#ffffff;align=center;rounded=1;shadow=0;comic=0;labelBackgroundColor=none;strokeWidth=1;fontFamily=Verdana;fontSize=12" vertex="1" parent="1">
          <mxGeometry x="295" y="-230" width="140" height="52" as="geometry" />
        </mxCell>
        <mxCell id="dTGAiHR_OEUd41CjqDOk-6" value="MTWL Sensor: MTWL" style="text;html=1;strokeColor=none;fillColor=none;spacingLeft=4;spacingRight=4;whiteSpace=wrap;overflow=hidden;rotatable=0;points=[[0,0.5],[1,0.5]];portConstraint=eastwest;align=center;" vertex="1" parent="dTGAiHR_OEUd41CjqDOk-5">
          <mxGeometry y="26" width="140" height="26" as="geometry" />
        </mxCell>
        <mxCell id="dTGAiHR_OEUd41CjqDOk-7" style="edgeStyle=none;html=1;labelBackgroundColor=none;startFill=0;startSize=8;endFill=1;endSize=8;fontFamily=Verdana;fontSize=12;entryX=0;entryY=0.5;entryDx=0;entryDy=0;exitX=1;exitY=0;exitDx=0;exitDy=0;" edge="1" parent="1" target="dTGAiHR_OEUd41CjqDOk-5" source="17472293e6e8944d-30">
          <mxGeometry relative="1" as="geometry">
            <mxPoint x="180" y="154" as="sourcePoint" />
            <mxPoint x="298" y="43" as="targetPoint" />
          </mxGeometry>
        </mxCell>
        <mxCell id="dTGAiHR_OEUd41CjqDOk-8" value="4" style="swimlane;html=1;fontStyle=0;childLayout=stackLayout;horizontal=1;startSize=26;fillColor=#e0e0e0;horizontalStack=0;resizeParent=1;resizeLast=0;collapsible=1;marginBottom=0;swimlaneFillColor=#ffffff;align=center;rounded=1;shadow=0;comic=0;labelBackgroundColor=none;strokeWidth=1;fontFamily=Verdana;fontSize=12" vertex="1" parent="1">
          <mxGeometry x="295" y="-150" width="175" height="52" as="geometry" />
        </mxCell>
        <mxCell id="dTGAiHR_OEUd41CjqDOk-9" value="Motor ON/OFF sensor: Motor" style="text;html=1;strokeColor=none;fillColor=none;spacingLeft=4;spacingRight=4;whiteSpace=wrap;overflow=hidden;rotatable=0;points=[[0,0.5],[1,0.5]];portConstraint=eastwest;align=center;" vertex="1" parent="dTGAiHR_OEUd41CjqDOk-8">
          <mxGeometry y="26" width="175" height="26" as="geometry" />
        </mxCell>
        <mxCell id="dTGAiHR_OEUd41CjqDOk-10" style="edgeStyle=none;html=1;labelBackgroundColor=none;startFill=0;startSize=8;endFill=1;endSize=8;fontFamily=Verdana;fontSize=12;entryX=0;entryY=0.5;entryDx=0;entryDy=0;exitX=1;exitY=0.25;exitDx=0;exitDy=0;" edge="1" parent="1" target="dTGAiHR_OEUd41CjqDOk-8" source="17472293e6e8944d-30">
          <mxGeometry relative="1" as="geometry">
            <mxPoint x="180" y="144" as="sourcePoint" />
            <mxPoint x="298" y="33" as="targetPoint" />
          </mxGeometry>
        </mxCell>
        <mxCell id="dTGAiHR_OEUd41CjqDOk-61" style="edgeStyle=orthogonalEdgeStyle;rounded=0;orthogonalLoop=1;jettySize=auto;html=1;entryX=0;entryY=0.5;entryDx=0;entryDy=0;" edge="1" parent="1" source="dTGAiHR_OEUd41CjqDOk-12" target="dTGAiHR_OEUd41CjqDOk-60">
          <mxGeometry relative="1" as="geometry">
            <Array as="points">
              <mxPoint x="530" y="70" />
              <mxPoint x="530" y="70" />
            </Array>
          </mxGeometry>
        </mxCell>
        <mxCell id="dTGAiHR_OEUd41CjqDOk-12" value="7" style="swimlane;html=1;fontStyle=0;childLayout=stackLayout;horizontal=1;startSize=26;fillColor=#e0e0e0;horizontalStack=0;resizeParent=1;resizeLast=0;collapsible=1;marginBottom=0;swimlaneFillColor=#ffffff;align=center;rounded=1;shadow=0;comic=0;labelBackgroundColor=none;strokeWidth=1;fontFamily=Verdana;fontSize=12" vertex="1" parent="1">
          <mxGeometry x="290" y="60" width="200" height="52" as="geometry" />
        </mxCell>
        <mxCell id="dTGAiHR_OEUd41CjqDOk-13" value="Manual switch option: MS" style="text;html=1;strokeColor=none;fillColor=none;spacingLeft=4;spacingRight=4;whiteSpace=wrap;overflow=hidden;rotatable=0;points=[[0,0.5],[1,0.5]];portConstraint=eastwest;align=center;" vertex="1" parent="dTGAiHR_OEUd41CjqDOk-12">
          <mxGeometry y="26" width="200" height="26" as="geometry" />
        </mxCell>
        <mxCell id="dTGAiHR_OEUd41CjqDOk-14" style="edgeStyle=none;html=1;labelBackgroundColor=none;startFill=0;startSize=8;endFill=1;endSize=8;fontFamily=Verdana;fontSize=12;entryX=0;entryY=0.5;entryDx=0;entryDy=0;exitX=1;exitY=1;exitDx=0;exitDy=0;" edge="1" parent="1" source="17472293e6e8944d-30" target="dTGAiHR_OEUd41CjqDOk-12">
          <mxGeometry relative="1" as="geometry">
            <mxPoint x="190" y="115" as="sourcePoint" />
            <mxPoint x="290" y="52" as="targetPoint" />
          </mxGeometry>
        </mxCell>
        <mxCell id="dTGAiHR_OEUd41CjqDOk-15" style="edgeStyle=orthogonalEdgeStyle;html=1;labelBackgroundColor=none;startFill=0;startSize=8;endFill=1;endSize=8;fontFamily=Verdana;fontSize=12;exitX=1;exitY=0.5;exitDx=0;exitDy=0;entryX=0.013;entryY=0.095;entryDx=0;entryDy=0;entryPerimeter=0;" edge="1" parent="1" source="dTGAiHR_OEUd41CjqDOk-3" target="21ea969265ad0168-30">
          <mxGeometry relative="1" as="geometry">
            <Array as="points">
              <mxPoint x="650" y="-263" />
              <mxPoint x="650" y="-240" />
              <mxPoint x="920" y="-240" />
              <mxPoint x="920" y="-85" />
            </Array>
            <mxPoint x="460" y="-154" as="sourcePoint" />
            <mxPoint x="920" y="142" as="targetPoint" />
          </mxGeometry>
        </mxCell>
        <mxCell id="dTGAiHR_OEUd41CjqDOk-27" value="TWS: ON/OFF status" style="edgeLabel;html=1;align=center;verticalAlign=middle;resizable=0;points=[];" vertex="1" connectable="0" parent="dTGAiHR_OEUd41CjqDOk-15">
          <mxGeometry x="0.1304" y="1" relative="1" as="geometry">
            <mxPoint x="-257" y="-22" as="offset" />
          </mxGeometry>
        </mxCell>
        <mxCell id="dTGAiHR_OEUd41CjqDOk-16" style="edgeStyle=orthogonalEdgeStyle;html=1;labelBackgroundColor=none;startFill=0;startSize=8;endFill=1;endSize=8;fontFamily=Verdana;fontSize=12;exitX=1;exitY=0.5;exitDx=0;exitDy=0;entryX=0;entryY=0.4;entryDx=0;entryDy=0;entryPerimeter=0;" edge="1" parent="1" source="dTGAiHR_OEUd41CjqDOk-6" target="21ea969265ad0168-30">
          <mxGeometry relative="1" as="geometry">
            <Array as="points">
              <mxPoint x="435" y="-190" />
              <mxPoint x="650" y="-190" />
              <mxPoint x="650" y="-170" />
              <mxPoint x="890" y="-170" />
              <mxPoint x="890" y="-70" />
            </Array>
            <mxPoint x="440" y="-179.99999999999977" as="sourcePoint" />
            <mxPoint x="990" y="-56.95238095238096" as="targetPoint" />
          </mxGeometry>
        </mxCell>
        <mxCell id="dTGAiHR_OEUd41CjqDOk-46" value="MTWLS: ON/OFF status" style="edgeLabel;html=1;align=center;verticalAlign=middle;resizable=0;points=[];" vertex="1" connectable="0" parent="dTGAiHR_OEUd41CjqDOk-16">
          <mxGeometry x="-0.1452" y="-2" relative="1" as="geometry">
            <mxPoint x="-124" y="-23" as="offset" />
          </mxGeometry>
        </mxCell>
        <mxCell id="dTGAiHR_OEUd41CjqDOk-17" style="edgeStyle=orthogonalEdgeStyle;rounded=0;orthogonalLoop=1;jettySize=auto;html=1;exitX=1;exitY=0.5;exitDx=0;exitDy=0;" edge="1" parent="1" source="1fdf3b25b50cf41e-2" target="21ea969265ad0168-30">
          <mxGeometry relative="1" as="geometry">
            <Array as="points">
              <mxPoint x="660" y="-341" />
              <mxPoint x="660" y="-320" />
              <mxPoint x="1045" y="-320" />
            </Array>
          </mxGeometry>
        </mxCell>
        <mxCell id="dTGAiHR_OEUd41CjqDOk-26" value="RTTS: ON/OFF status" style="edgeLabel;html=1;align=center;verticalAlign=middle;resizable=0;points=[];" vertex="1" connectable="0" parent="dTGAiHR_OEUd41CjqDOk-17">
          <mxGeometry x="-0.0274" y="3" relative="1" as="geometry">
            <mxPoint x="-274" y="-18" as="offset" />
          </mxGeometry>
        </mxCell>
        <mxCell id="dTGAiHR_OEUd41CjqDOk-18" style="edgeStyle=orthogonalEdgeStyle;rounded=0;orthogonalLoop=1;jettySize=auto;html=1;exitX=1;exitY=0.25;exitDx=0;exitDy=0;" edge="1" parent="1" source="dTGAiHR_OEUd41CjqDOk-8" target="21ea969265ad0168-30">
          <mxGeometry relative="1" as="geometry">
            <mxPoint x="980" y="-50" as="targetPoint" />
            <Array as="points">
              <mxPoint x="470" y="-140" />
              <mxPoint x="870" y="-140" />
              <mxPoint x="870" y="-50" />
            </Array>
          </mxGeometry>
        </mxCell>
        <mxCell id="dTGAiHR_OEUd41CjqDOk-30" value="MotorS: ON/OFF status" style="edgeLabel;html=1;align=center;verticalAlign=middle;resizable=0;points=[];" vertex="1" connectable="0" parent="dTGAiHR_OEUd41CjqDOk-18">
          <mxGeometry x="-0.2574" y="-2" relative="1" as="geometry">
            <mxPoint x="-117" y="-2" as="offset" />
          </mxGeometry>
        </mxCell>
        <mxCell id="dTGAiHR_OEUd41CjqDOk-19" style="edgeStyle=orthogonalEdgeStyle;rounded=0;orthogonalLoop=1;jettySize=auto;html=1;entryX=0.503;entryY=1.04;entryDx=0;entryDy=0;entryPerimeter=0;" edge="1" parent="1" source="dTGAiHR_OEUd41CjqDOk-13" target="21ea969265ad0168-30">
          <mxGeometry relative="1" as="geometry" />
        </mxCell>
        <mxCell id="dTGAiHR_OEUd41CjqDOk-31" value="ManualSwitchSensor: ON/OFF status" style="edgeLabel;html=1;align=center;verticalAlign=middle;resizable=0;points=[];" vertex="1" connectable="0" parent="dTGAiHR_OEUd41CjqDOk-19">
          <mxGeometry x="-0.313" relative="1" as="geometry">
            <mxPoint as="offset" />
          </mxGeometry>
        </mxCell>
        <mxCell id="dTGAiHR_OEUd41CjqDOk-21" value="" style="edgeStyle=orthogonalEdgeStyle;rounded=0;orthogonalLoop=1;jettySize=auto;html=1;" edge="1" parent="1" source="dTGAiHR_OEUd41CjqDOk-20" target="17472293e6e8944d-30">
          <mxGeometry relative="1" as="geometry" />
        </mxCell>
        <mxCell id="dTGAiHR_OEUd41CjqDOk-20" value="Dashboard Control Options" style="rounded=0;whiteSpace=wrap;html=1;" vertex="1" parent="1">
          <mxGeometry x="60" y="-198" width="120" height="60" as="geometry" />
        </mxCell>
        <mxCell id="dTGAiHR_OEUd41CjqDOk-80" style="edgeStyle=orthogonalEdgeStyle;rounded=0;orthogonalLoop=1;jettySize=auto;html=1;entryX=0;entryY=0.5;entryDx=0;entryDy=0;" edge="1" parent="1" source="dTGAiHR_OEUd41CjqDOk-25" target="dTGAiHR_OEUd41CjqDOk-79">
          <mxGeometry relative="1" as="geometry" />
        </mxCell>
        <mxCell id="dTGAiHR_OEUd41CjqDOk-25" value="TW status" style="whiteSpace=wrap;html=1;rounded=0;shadow=0;comic=0;labelBackgroundColor=none;strokeWidth=1;fontFamily=Verdana;fontSize=12;align=center;" vertex="1" parent="1">
          <mxGeometry x="680" y="-290" width="110" height="20" as="geometry" />
        </mxCell>
        <mxCell id="dTGAiHR_OEUd41CjqDOk-32" value="MTWL status" style="whiteSpace=wrap;html=1;rounded=0;shadow=0;comic=0;labelBackgroundColor=none;strokeWidth=1;fontFamily=Verdana;fontSize=12;align=center;" vertex="1" parent="1">
          <mxGeometry x="680" y="-230" width="120" height="20" as="geometry" />
        </mxCell>
        <mxCell id="dTGAiHR_OEUd41CjqDOk-35" value="Motor status" style="whiteSpace=wrap;html=1;rounded=0;shadow=0;comic=0;labelBackgroundColor=none;strokeWidth=1;fontFamily=Verdana;fontSize=12;align=center;" vertex="1" parent="1">
          <mxGeometry x="680" y="-121" width="120" height="22" as="geometry" />
        </mxCell>
        <mxCell id="dTGAiHR_OEUd41CjqDOk-55" style="edgeStyle=orthogonalEdgeStyle;rounded=0;orthogonalLoop=1;jettySize=auto;html=1;entryX=0;entryY=0.5;entryDx=0;entryDy=0;" edge="1" parent="1" source="dTGAiHR_OEUd41CjqDOk-39" target="dTGAiHR_OEUd41CjqDOk-54">
          <mxGeometry relative="1" as="geometry">
            <Array as="points">
              <mxPoint x="490" y="-70" />
              <mxPoint x="490" y="-70" />
            </Array>
          </mxGeometry>
        </mxCell>
        <mxCell id="dTGAiHR_OEUd41CjqDOk-39" value="5" style="swimlane;html=1;fontStyle=0;childLayout=stackLayout;horizontal=1;startSize=26;fillColor=#e0e0e0;horizontalStack=0;resizeParent=1;resizeLast=0;collapsible=1;marginBottom=0;swimlaneFillColor=#ffffff;align=center;rounded=1;shadow=0;comic=0;labelBackgroundColor=none;strokeWidth=1;fontFamily=Verdana;fontSize=12" vertex="1" parent="1">
          <mxGeometry x="295" y="-80" width="140" height="52" as="geometry" />
        </mxCell>
        <mxCell id="dTGAiHR_OEUd41CjqDOk-40" value="TW valve sensor: TWV" style="text;html=1;strokeColor=none;fillColor=none;spacingLeft=4;spacingRight=4;whiteSpace=wrap;overflow=hidden;rotatable=0;points=[[0,0.5],[1,0.5]];portConstraint=eastwest;align=center;" vertex="1" parent="dTGAiHR_OEUd41CjqDOk-39">
          <mxGeometry y="26" width="140" height="26" as="geometry" />
        </mxCell>
        <mxCell id="dTGAiHR_OEUd41CjqDOk-41" value="6" style="swimlane;html=1;fontStyle=0;childLayout=stackLayout;horizontal=1;startSize=26;fillColor=#e0e0e0;horizontalStack=0;resizeParent=1;resizeLast=0;collapsible=1;marginBottom=0;swimlaneFillColor=#ffffff;align=center;rounded=1;shadow=0;comic=0;labelBackgroundColor=none;strokeWidth=1;fontFamily=Verdana;fontSize=12" vertex="1" parent="1">
          <mxGeometry x="295" y="-10" width="175" height="52" as="geometry" />
        </mxCell>
        <mxCell id="dTGAiHR_OEUd41CjqDOk-42" value="MTW Valve sensor: MTWV&amp;nbsp;" style="text;html=1;strokeColor=none;fillColor=none;spacingLeft=4;spacingRight=4;whiteSpace=wrap;overflow=hidden;rotatable=0;points=[[0,0.5],[1,0.5]];portConstraint=eastwest;align=center;" vertex="1" parent="dTGAiHR_OEUd41CjqDOk-41">
          <mxGeometry y="26" width="175" height="26" as="geometry" />
        </mxCell>
        <mxCell id="dTGAiHR_OEUd41CjqDOk-47" style="edgeStyle=orthogonalEdgeStyle;rounded=0;orthogonalLoop=1;jettySize=auto;html=1;entryX=0.013;entryY=1.001;entryDx=0;entryDy=0;entryPerimeter=0;" edge="1" parent="1" source="dTGAiHR_OEUd41CjqDOk-39" target="21ea969265ad0168-30">
          <mxGeometry relative="1" as="geometry">
            <Array as="points">
              <mxPoint x="712" y="-40" />
              <mxPoint x="712" y="-20" />
              <mxPoint x="991" y="-20" />
            </Array>
          </mxGeometry>
        </mxCell>
        <mxCell id="dTGAiHR_OEUd41CjqDOk-53" value="TWVS: Open/Close" style="edgeLabel;html=1;align=center;verticalAlign=middle;resizable=0;points=[];" vertex="1" connectable="0" parent="dTGAiHR_OEUd41CjqDOk-47">
          <mxGeometry x="-0.6715" y="1" relative="1" as="geometry">
            <mxPoint x="35" as="offset" />
          </mxGeometry>
        </mxCell>
        <mxCell id="dTGAiHR_OEUd41CjqDOk-50" style="edgeStyle=orthogonalEdgeStyle;rounded=0;orthogonalLoop=1;jettySize=auto;html=1;entryX=0.016;entryY=0.41;entryDx=0;entryDy=0;entryPerimeter=0;" edge="1" parent="1" source="dTGAiHR_OEUd41CjqDOk-2" target="dTGAiHR_OEUd41CjqDOk-25">
          <mxGeometry relative="1" as="geometry">
            <Array as="points">
              <mxPoint x="562" y="-280" />
              <mxPoint x="562" y="-281" />
            </Array>
          </mxGeometry>
        </mxCell>
        <mxCell id="dTGAiHR_OEUd41CjqDOk-52" style="edgeStyle=orthogonalEdgeStyle;rounded=0;orthogonalLoop=1;jettySize=auto;html=1;entryX=-0.018;entryY=0.385;entryDx=0;entryDy=0;entryPerimeter=0;" edge="1" parent="1" source="dTGAiHR_OEUd41CjqDOk-9" target="dTGAiHR_OEUd41CjqDOk-35">
          <mxGeometry relative="1" as="geometry">
            <Array as="points">
              <mxPoint x="558" y="-112" />
            </Array>
          </mxGeometry>
        </mxCell>
        <mxCell id="dTGAiHR_OEUd41CjqDOk-54" value="TWV status" style="whiteSpace=wrap;html=1;rounded=0;shadow=0;comic=0;labelBackgroundColor=none;strokeWidth=1;fontFamily=Verdana;fontSize=12;align=center;" vertex="1" parent="1">
          <mxGeometry x="680" y="-80" width="120" height="20" as="geometry" />
        </mxCell>
        <mxCell id="dTGAiHR_OEUd41CjqDOk-56" style="edgeStyle=orthogonalEdgeStyle;rounded=0;orthogonalLoop=1;jettySize=auto;html=1;entryX=0;entryY=0.5;entryDx=0;entryDy=0;" edge="1" parent="1" target="dTGAiHR_OEUd41CjqDOk-57">
          <mxGeometry relative="1" as="geometry">
            <mxPoint x="470" as="sourcePoint" />
            <Array as="points">
              <mxPoint x="525" />
              <mxPoint x="525" />
            </Array>
          </mxGeometry>
        </mxCell>
        <mxCell id="dTGAiHR_OEUd41CjqDOk-57" value="MTWV status" style="whiteSpace=wrap;html=1;rounded=0;shadow=0;comic=0;labelBackgroundColor=none;strokeWidth=1;fontFamily=Verdana;fontSize=12;align=center;" vertex="1" parent="1">
          <mxGeometry x="680" y="-10" width="120" height="20" as="geometry" />
        </mxCell>
        <mxCell id="dTGAiHR_OEUd41CjqDOk-58" style="edgeStyle=orthogonalEdgeStyle;rounded=0;orthogonalLoop=1;jettySize=auto;html=1;entryX=0.22;entryY=0.929;entryDx=0;entryDy=0;entryPerimeter=0;" edge="1" parent="1" source="dTGAiHR_OEUd41CjqDOk-41" target="21ea969265ad0168-30">
          <mxGeometry relative="1" as="geometry">
            <Array as="points">
              <mxPoint x="1014" y="30" />
            </Array>
          </mxGeometry>
        </mxCell>
        <mxCell id="dTGAiHR_OEUd41CjqDOk-59" value="MTWVS: Open/Close" style="edgeLabel;html=1;align=center;verticalAlign=middle;resizable=0;points=[];" vertex="1" connectable="0" parent="dTGAiHR_OEUd41CjqDOk-58">
          <mxGeometry x="-0.5107" y="-2" relative="1" as="geometry">
            <mxPoint x="-51" y="-3" as="offset" />
          </mxGeometry>
        </mxCell>
        <mxCell id="dTGAiHR_OEUd41CjqDOk-60" value="MS status" style="whiteSpace=wrap;html=1;rounded=0;shadow=0;comic=0;labelBackgroundColor=none;strokeWidth=1;fontFamily=Verdana;fontSize=12;align=center;" vertex="1" parent="1">
          <mxGeometry x="680" y="60" width="120" height="20" as="geometry" />
        </mxCell>
        <mxCell id="dTGAiHR_OEUd41CjqDOk-68" value="" style="edgeStyle=orthogonalEdgeStyle;rounded=0;orthogonalLoop=1;jettySize=auto;html=1;entryX=0.5;entryY=0;entryDx=0;entryDy=0;" edge="1" parent="1" source="dTGAiHR_OEUd41CjqDOk-66" target="dTGAiHR_OEUd41CjqDOk-79">
          <mxGeometry relative="1" as="geometry">
            <mxPoint x="1250" y="-293" as="targetPoint" />
          </mxGeometry>
        </mxCell>
        <mxCell id="dTGAiHR_OEUd41CjqDOk-69" value="RTTFR=1" style="edgeLabel;html=1;align=center;verticalAlign=middle;resizable=0;points=[];" vertex="1" connectable="0" parent="dTGAiHR_OEUd41CjqDOk-68">
          <mxGeometry x="0.1111" y="1" relative="1" as="geometry">
            <mxPoint y="-4" as="offset" />
          </mxGeometry>
        </mxCell>
        <mxCell id="dTGAiHR_OEUd41CjqDOk-71" value="" style="edgeStyle=orthogonalEdgeStyle;rounded=0;orthogonalLoop=1;jettySize=auto;html=1;" edge="1" parent="1" source="dTGAiHR_OEUd41CjqDOk-66" target="dTGAiHR_OEUd41CjqDOk-70">
          <mxGeometry relative="1" as="geometry" />
        </mxCell>
        <mxCell id="dTGAiHR_OEUd41CjqDOk-72" value="RTTFR=2" style="edgeLabel;html=1;align=center;verticalAlign=middle;resizable=0;points=[];" vertex="1" connectable="0" parent="dTGAiHR_OEUd41CjqDOk-71">
          <mxGeometry x="-0.2" y="-2" relative="1" as="geometry">
            <mxPoint y="-2" as="offset" />
          </mxGeometry>
        </mxCell>
        <mxCell id="dTGAiHR_OEUd41CjqDOk-74" value="" style="edgeStyle=orthogonalEdgeStyle;rounded=0;orthogonalLoop=1;jettySize=auto;html=1;" edge="1" parent="1" source="dTGAiHR_OEUd41CjqDOk-66" target="dTGAiHR_OEUd41CjqDOk-73">
          <mxGeometry relative="1" as="geometry" />
        </mxCell>
        <mxCell id="dTGAiHR_OEUd41CjqDOk-75" value="RTTFR=0" style="edgeLabel;html=1;align=center;verticalAlign=middle;resizable=0;points=[];" vertex="1" connectable="0" parent="dTGAiHR_OEUd41CjqDOk-74">
          <mxGeometry x="-0.25" y="-1" relative="1" as="geometry">
            <mxPoint as="offset" />
          </mxGeometry>
        </mxCell>
        <mxCell id="dTGAiHR_OEUd41CjqDOk-66" value="RTTFR" style="rhombus;whiteSpace=wrap;html=1;" vertex="1" parent="1">
          <mxGeometry x="1210" y="-410" width="80" height="80" as="geometry" />
        </mxCell>
        <mxCell id="dTGAiHR_OEUd41CjqDOk-70" value="" style="rounded=0;whiteSpace=wrap;html=1;" vertex="1" parent="1">
          <mxGeometry x="1369" y="-385" width="80" height="30" as="geometry" />
        </mxCell>
        <mxCell id="dTGAiHR_OEUd41CjqDOk-73" value="" style="rounded=0;whiteSpace=wrap;html=1;" vertex="1" parent="1">
          <mxGeometry x="1190" y="-479" width="120" height="30" as="geometry" />
        </mxCell>
        <mxCell id="dTGAiHR_OEUd41CjqDOk-78" value="" style="endArrow=classic;html=1;rounded=0;exitX=1;exitY=0.5;exitDx=0;exitDy=0;entryX=0;entryY=0.5;entryDx=0;entryDy=0;" edge="1" parent="1" source="17472293e6e8944d-30" target="dTGAiHR_OEUd41CjqDOk-40">
          <mxGeometry width="50" height="50" relative="1" as="geometry">
            <mxPoint x="210" y="-10" as="sourcePoint" />
            <mxPoint x="290" y="-40" as="targetPoint" />
          </mxGeometry>
        </mxCell>
        <mxCell id="dTGAiHR_OEUd41CjqDOk-82" value="" style="edgeStyle=orthogonalEdgeStyle;rounded=0;orthogonalLoop=1;jettySize=auto;html=1;" edge="1" parent="1" source="dTGAiHR_OEUd41CjqDOk-79" target="dTGAiHR_OEUd41CjqDOk-81">
          <mxGeometry relative="1" as="geometry" />
        </mxCell>
        <mxCell id="dTGAiHR_OEUd41CjqDOk-83" value="TW=1" style="edgeLabel;html=1;align=center;verticalAlign=middle;resizable=0;points=[];" vertex="1" connectable="0" parent="dTGAiHR_OEUd41CjqDOk-82">
          <mxGeometry x="0.1915" y="2" relative="1" as="geometry">
            <mxPoint as="offset" />
          </mxGeometry>
        </mxCell>
        <mxCell id="dTGAiHR_OEUd41CjqDOk-79" value="TW" style="rhombus;whiteSpace=wrap;html=1;" vertex="1" parent="1">
          <mxGeometry x="1210" y="-291" width="80" height="80" as="geometry" />
        </mxCell>
        <mxCell id="dTGAiHR_OEUd41CjqDOk-81" value="" style="rounded=0;whiteSpace=wrap;html=1;" vertex="1" parent="1">
          <mxGeometry x="1207.5" y="-178" width="85" height="48" as="geometry" />
        </mxCell>
      </root>
    </mxGraphModel>
  </diagram>
</mxfile>
